<svg width="22" height="22" viewBox="0 0 22 22" fill="none" xmlns="http://www.w3.org/2000/svg">
<g clip-path="url(#clip0_958_250)">
<path d="M4.58333 11H2.75L11 2.75L19.25 11H17.4167" stroke="#67ADB9" stroke-width="2" stroke-linecap="round" stroke-linejoin="round"/>
<path d="M4.58331 11V17.4167C4.58331 17.9029 4.77647 18.3692 5.12028 18.713C5.4641 19.0568 5.93042 19.25 6.41665 19.25H15.5833C16.0695 19.25 16.5359 19.0568 16.8797 18.713C17.2235 18.3692 17.4166 17.9029 17.4166 17.4167V11" stroke="#67ADB9" stroke-width="2" stroke-linecap="round" stroke-linejoin="round"/>
<path d="M8.25 19.25V13.75C8.25 13.2638 8.44315 12.7975 8.78697 12.4536C9.13079 12.1098 9.5971 11.9167 10.0833 11.9167H11.9167C12.4029 11.9167 12.8692 12.1098 13.213 12.4536C13.5568 12.7975 13.75 13.2638 13.75 13.75V19.25" stroke="#67ADB9" stroke-width="2" stroke-linecap="round" stroke-linejoin="round"/>
</g>
<defs>
<clipPath id="clip0_958_250">
<rect width="22" height="22" fill="white"/>
</clipPath>
</defs>
</svg>
