<svg width="64" height="64" viewBox="0 0 64 64" fill="none" xmlns="http://www.w3.org/2000/svg">
<circle cx="32" cy="32" r="32" fill="#E4F7F9"/>
<g clip-path="url(#clip0_203_11231)">
<path d="M34.4794 42.98L34.4717 42.9766L34.473 42.977L34.4794 42.98Z" fill="#67ADB9"/>
<path fill-rule="evenodd" clip-rule="evenodd" d="M24.2375 24.1489C23.9053 25.3634 23.9555 26.6121 24.1801 27.8356C24.1795 27.9634 24.2027 28.0877 24.2521 28.2001C24.3641 28.7305 24.5053 29.2549 24.6583 29.7685C24.7381 30.0368 24.8204 30.3042 24.9053 30.5707L24.9114 30.5937C24.9684 30.8116 25.0292 31.044 25.1285 31.2508C26.2958 34.7067 27.92 37.9879 30.1835 40.8619C29.9777 40.9651 29.8304 41.1306 29.8328 41.4096C29.8349 41.6513 29.9485 41.8263 30.113 41.9602C30.0307 41.9913 29.955 42.0319 29.8921 42.0868C29.6979 42.2567 29.6493 42.5211 29.7275 42.7612C29.8006 42.9804 29.9764 43.126 30.1731 43.2321C29.8558 43.3448 29.6169 43.5908 29.706 43.9752C29.8036 44.3965 30.197 44.5487 30.5512 44.6857L30.6043 44.7064C31.0441 44.8763 31.4946 45.0112 31.9559 45.1137C32.7653 45.2972 33.7797 45.5076 34.5539 45.0948C34.9128 44.9033 35.2149 44.4797 34.9613 44.0832C34.9007 43.9876 34.8222 43.9254 34.7353 43.8783C34.7413 43.8231 34.735 43.7656 34.7147 43.7127C34.8718 43.627 35.0124 43.5127 35.1043 43.3547C35.2392 43.1227 35.2149 42.8314 35.0395 42.6263C35.0049 42.586 34.9653 42.5517 34.9226 42.5218C35.032 42.4264 35.1198 42.3093 35.1663 42.1677C35.223 41.9977 35.196 41.79 35.0908 41.6443C35.0344 41.5668 34.9666 41.5043 34.8887 41.4537C34.902 41.3406 34.8639 41.218 34.7595 41.143C34.7773 41.1233 34.7935 41.0998 34.8075 41.0724C36.5395 37.6758 38.196 34.2199 39.5989 30.675C39.9037 29.9061 40.1978 29.1183 40.3704 28.3063C40.5431 27.4942 40.5053 26.7712 40.3866 25.9916C40.1034 24.1597 39.267 22.3846 37.9856 21.0384C35.285 18.203 30.8957 17.9979 27.6232 19.9538C26.0423 20.8981 24.7312 22.3468 24.2375 24.1489ZM27.9065 36.2649L27.9446 36.3369C27.8841 36.1261 27.8374 35.9102 27.8055 35.69C27.7421 35.7031 27.6807 35.7081 27.6214 35.7059C27.7139 35.8932 27.8089 36.0796 27.9065 36.2649ZM30.834 40.6951C30.2936 40.0276 29.7839 39.3356 29.308 38.6212C29.67 38.9846 30.0817 39.3007 30.5282 39.5589C30.339 40.036 30.7258 40.6801 31.2734 40.6353C31.3664 40.6277 31.4584 40.6218 31.5495 40.6176C31.3894 40.628 31.2298 40.6438 31.0711 40.665C31.0373 40.6695 31.0021 40.6738 30.9656 40.6784L30.9647 40.6785C30.9226 40.6837 30.8785 40.6891 30.834 40.6951ZM33.3462 40.7224C33.5497 40.6831 33.7316 40.5727 33.8485 40.3929C34.1012 40.4354 34.3909 40.3685 34.5675 40.1795C34.4698 40.3733 34.3718 40.5667 34.2734 40.7594C34.2407 40.8233 34.2314 40.8858 34.2391 40.9433C33.9469 40.8512 33.6484 40.7774 33.3462 40.7224ZM39.2293 29.9196C38.6044 31.6249 37.8578 33.2934 37.0912 34.9421C37.4287 34.1671 37.7664 33.3921 38.1043 32.6174C38.1622 32.4842 38.1941 32.3432 38.1952 32.2059C38.6002 31.319 38.9719 30.4167 39.3102 29.5014C39.3639 29.3566 39.3699 29.2211 39.3409 29.0998C39.7497 27.9457 39.8584 26.7109 39.6691 25.5109C39.8258 26.1865 39.9281 26.9067 39.8633 27.5995C39.7904 28.3926 39.5044 29.1777 39.2293 29.9196ZM37.2325 21.1601C37.8206 21.7097 38.3151 22.3501 38.7126 23.0474C38.563 22.9546 38.3841 22.9275 38.2094 22.9523C37.9851 22.2986 37.6578 21.6904 37.2325 21.1601ZM26.8409 21.2731C28.0334 20.2466 29.5362 19.587 31.0907 19.3609C31.0467 19.4148 31.0102 19.4759 30.9829 19.5442C30.5063 19.7269 30.0378 19.9305 29.5798 20.1552C28.5797 20.4823 27.6972 21.0522 26.9521 21.7785C26.431 22.1743 25.9303 22.5958 25.4595 23.0509C25.4034 23.1053 25.347 23.1603 25.2913 23.2163C25.6667 22.4895 26.1905 21.8327 26.8409 21.2731ZM31.3689 38.2304C31.2762 38.1778 31.1853 38.1216 31.0966 38.0619C31.0954 38.0358 31.093 38.0096 31.0896 37.9834L31.4891 38.0403C31.4491 38.1038 31.409 38.1672 31.3689 38.2304ZM32.9173 38.7271C33.4768 37.8243 34.013 36.9004 34.4774 35.9481C34.4755 36.0259 34.4851 36.1039 34.5052 36.1793C34.3293 36.7094 34.1389 37.235 33.9341 37.7552C33.7161 38.1013 33.5348 38.4703 33.3946 38.8551C33.286 38.7879 33.1535 38.7438 32.9973 38.7334L32.9892 38.7328V38.7307L32.9684 38.7313C32.9514 38.7301 32.9343 38.7287 32.9173 38.7271ZM34.8448 29.7296C34.7913 29.7585 34.7416 29.7937 34.696 29.8347C34.7511 29.6027 34.8038 29.3702 34.8542 29.1372C34.8519 29.3347 34.8488 29.5322 34.8448 29.7296ZM28.7608 30.4202C28.7388 30.3304 28.716 30.2408 28.6923 30.1514C28.7758 29.2799 28.9754 28.4291 29.331 27.6345C29.4404 27.3897 29.5625 27.151 29.6967 26.9202C29.1567 28.0095 28.8455 29.2071 28.7608 30.4202ZM32.3338 32.2646C32.3704 32.0428 32.416 31.8237 32.4705 31.6077C32.4309 31.9032 32.3935 32.199 32.3583 32.495L32.3338 32.2646ZM34.098 22.6544C34.1538 22.6275 34.2102 22.6058 34.2667 22.5898C34.0821 22.4605 33.8879 22.3418 33.6849 22.2336C33.645 22.2759 33.6046 22.3176 33.5636 22.3586C33.749 22.4171 33.8934 22.5469 33.9831 22.7109C34.0213 22.6918 34.0596 22.673 34.098 22.6544ZM28.7924 24.5378C27.9271 25.7396 27.2701 27.083 26.8693 28.507C26.8419 28.3354 26.8243 28.163 26.8167 27.991C26.8936 27.5603 27.0126 27.1372 27.1862 26.7281C27.4344 26.1453 27.7932 25.5977 28.2114 25.1256C28.3864 24.9281 28.588 24.726 28.7924 24.5378ZM37.583 28.7719C37.6283 28.176 37.657 27.5785 37.669 26.98C37.6891 27.2884 37.6907 27.5989 37.6781 27.907C37.6727 28.0392 37.6619 28.1741 37.6484 28.3063C37.643 28.3629 37.6376 28.4169 37.6295 28.4736C37.6263 28.5004 37.6262 28.5046 37.627 28.5008L37.6214 28.5383C37.6097 28.6164 37.5969 28.6943 37.583 28.7719ZM30.7784 41.3342C30.7557 41.3424 30.7321 41.3475 30.7083 41.349C30.6535 41.361 30.599 41.374 30.545 41.388C30.5371 41.39 30.5279 41.3918 30.5181 41.3938C30.4962 41.3981 30.4715 41.403 30.4518 41.4115C30.4916 41.4723 30.5214 41.5044 30.5908 41.5445C30.7328 41.6247 30.8943 41.6815 31.0504 41.7364C31.0782 41.7462 31.1058 41.7559 31.1331 41.7657C31.1438 41.7696 31.154 41.7738 31.1638 41.7784C32.2458 41.6715 33.3427 41.8118 34.3681 42.1832C34.3912 42.1535 34.4193 42.1278 34.4514 42.1083C34.4683 42.0982 34.484 42.0881 34.4994 42.0774C34.5204 42.0591 34.54 42.0396 34.5584 42.0194C34.564 42.0108 34.5693 42.0021 34.5742 41.9931L34.5768 41.9849L34.5724 41.9809C34.5508 41.9671 34.5281 41.9548 34.505 41.9435C34.4575 41.9244 34.4093 41.9066 34.3612 41.8888C34.1726 41.8189 33.9844 41.7493 33.839 41.6039C33.795 41.5599 33.7681 41.5067 33.7569 41.4508C33.1494 41.2908 32.5203 41.2113 31.8939 41.2208C31.525 41.2274 31.1452 41.2597 30.7784 41.3342ZM33.9029 43.3116L33.9467 43.3075L33.9604 43.3062C33.962 43.3062 33.9696 43.3054 33.9778 43.3046C33.9968 43.3028 34.0196 43.3005 33.982 43.3062C34.009 43.3035 34.036 43.2981 34.0629 43.2927C34.1142 43.2819 34.1655 43.2684 34.214 43.2549C34.2311 43.2515 34.2472 43.2459 34.2635 43.2402L34.2788 43.2349C34.2832 43.2335 34.2877 43.232 34.2923 43.2306C34.2983 43.2286 34.3044 43.2255 34.3105 43.2223C34.3184 43.2182 34.3263 43.2141 34.3341 43.2125L34.3399 43.2096C34.3751 43.1923 34.4109 43.1745 34.4433 43.1551C34.4527 43.1497 34.4615 43.1437 34.4702 43.1376C34.479 43.1315 34.4878 43.1254 34.4973 43.12L34.4991 43.1189C34.5165 43.104 34.5336 43.0889 34.5485 43.0715C34.5511 43.0689 34.5536 43.0659 34.5562 43.0627L34.5599 43.0557C34.5641 43.0478 34.5687 43.039 34.5733 43.0315L34.5715 43.0297C34.5668 43.0263 34.562 43.0229 34.5566 43.0202C34.5316 43.0052 34.5066 42.9925 34.4794 42.98L34.4973 42.9878C34.4973 42.9862 34.4837 42.9807 34.4717 42.9766L34.4705 42.9762C34.4629 42.9736 34.4562 42.9717 34.4541 42.9717C34.3921 42.9501 34.3327 42.9285 34.2707 42.9042C34.1185 42.8449 33.9737 42.7782 33.8552 42.6663C33.1084 42.4377 32.3267 42.3279 31.5432 42.3673C31.2977 42.3781 31.0495 42.4051 30.8067 42.4483C30.6988 42.4672 30.5908 42.4887 30.4829 42.513C30.4546 42.5184 30.4263 42.5258 30.3979 42.5333C30.3708 42.5404 30.3436 42.5475 30.3165 42.5528C30.3663 42.6778 30.5469 42.7433 30.685 42.7933C30.7113 42.8029 30.7361 42.8118 30.7581 42.8206C30.9688 42.9012 31.182 42.9743 31.3977 43.0423C31.5163 43.0349 31.635 43.0303 31.7536 43.0283C32.4797 43.0159 33.2058 43.1124 33.9029 43.3116ZM33.6058 43.878C32.987 43.714 32.3487 43.6362 31.7023 43.6515C31.2707 43.6596 30.8148 43.692 30.3939 43.808C30.3615 43.8123 30.3309 43.8218 30.302 43.8337C30.3058 43.8359 30.3076 43.8425 30.3076 43.8538C30.3341 43.9191 30.4191 43.9605 30.483 43.9917L30.5045 44.0022C30.6786 44.0892 30.8664 44.1534 31.0489 44.2157L31.0953 44.2315C31.8966 44.5067 32.8031 44.7468 33.6556 44.7037C33.8552 44.6929 34.0602 44.6551 34.2383 44.5634L34.2462 44.5593C34.3013 44.5304 34.3669 44.4961 34.4056 44.4447C34.4277 44.4157 34.4337 44.4083 34.4365 44.4087C34.3962 44.3534 34.2758 44.3189 34.1823 44.2921C34.1464 44.2818 34.1145 44.2727 34.0926 44.2639C33.9442 44.2019 33.8147 44.1344 33.696 44.0238C33.6467 43.9785 33.618 43.9286 33.6058 43.878ZM34.5668 43.0192L34.562 43.0121L34.562 43.014L34.5636 43.0166L34.5668 43.0192ZM30.4449 41.3922C30.4466 41.3925 30.4487 41.3964 30.4464 41.4031C30.4421 41.3954 30.4433 41.392 30.4449 41.3922ZM34.446 41.9168C34.46 41.9228 34.4739 41.9289 34.4878 41.9353L34.446 41.9168ZM34.5855 41.9932L34.5971 42.0193C34.5942 42.0105 34.5905 42.0021 34.5863 41.994L34.5855 41.9932ZM34.5971 41.9465C34.5952 41.9509 34.5933 41.9553 34.5913 41.9596L34.5971 41.9465ZM34.5863 41.9357C34.586 41.9396 34.5855 41.9434 34.585 41.9472L34.5837 41.9556L34.5863 41.9357ZM34.5593 41.9546C34.5638 41.9598 34.5681 41.9653 34.5722 41.971L34.5593 41.9546Z" fill="#67ADB9"/>
<path d="M32.0315 40.1308C31.5459 38.5472 31.1089 36.9474 30.7258 35.3368C30.4587 34.2145 30.2186 33.0814 30.0459 31.9402C29.9137 31.0608 29.7788 30.1165 29.9056 29.2289C29.9272 29.0806 29.9569 28.9322 30.0081 28.7946C30.0351 28.7164 30.108 28.5923 30.1457 28.5518C30.1997 28.4978 30.1403 28.5437 30.2213 28.4924C30.4317 28.3629 30.688 28.2874 30.9281 28.2388C31.241 28.1768 31.5756 28.1687 31.8912 28.2253C32.045 28.2523 32.215 28.2766 32.3579 28.3387C32.7114 28.4897 32.884 29.0212 32.9892 29.3611C33.2239 30.1246 33.1997 30.9528 32.938 31.7082C32.8112 32.0724 32.6223 32.4205 32.3822 32.7199C32.3013 32.8197 32.0666 33.1462 31.9182 33.1246C31.7374 33.0949 31.6673 32.6902 31.6268 32.5473C31.4218 31.8269 31.4299 31.0581 31.6106 30.335C31.7914 29.612 32.1394 28.9133 32.6385 28.3521C32.857 28.1066 33.0998 27.88 33.3696 27.6912C33.6124 27.5212 34.2221 27.068 34.5324 27.2352C34.7293 27.3405 34.7968 27.702 34.8561 27.8935C34.9371 28.1579 35.0018 28.4277 35.0504 28.7029C35.1502 29.2613 35.1718 29.8333 35.1475 30.3998C35.0989 31.5491 34.8399 32.6687 34.5216 33.7694C33.9443 35.7631 33.4236 37.7729 32.8139 39.7585C32.6979 40.1389 33.2941 40.3035 33.4101 39.9231C34.0306 37.897 34.5648 35.844 35.1529 33.8071C35.7491 31.7352 36.17 29.2829 35.2716 27.2299C34.8238 26.2074 33.7527 26.6714 33.0567 27.157C32.3606 27.6426 31.8076 28.2982 31.4326 29.0509C31.0576 29.8036 30.8472 30.648 30.858 31.4924C30.8633 31.9025 30.92 32.3206 31.0333 32.7145C31.1385 33.0895 31.2815 33.5859 31.697 33.7154C32.5441 33.9825 33.232 32.6687 33.4748 32.0509C33.8013 31.2226 33.8633 30.2892 33.6529 29.4259C33.5531 29.0104 33.3831 28.5869 33.143 28.228C32.9029 27.8692 32.5954 27.7424 32.2042 27.6615C31.5189 27.5185 30.8256 27.5536 30.1781 27.8315C29.3337 28.193 29.2501 29.0833 29.2501 29.9088C29.2501 31.1147 29.4632 32.326 29.6952 33.505C30.1241 35.7064 30.7069 37.8809 31.3544 40.0283C31.3813 40.1173 31.4083 40.2091 31.4353 40.2981C31.5513 40.6785 32.1502 40.5166 32.0315 40.1335V40.1308Z" fill="white"/>
</g>
<defs>
<clipPath id="clip0_203_11231">
<rect width="32" height="32" fill="white" transform="translate(16 16)"/>
</clipPath>
</defs>
</svg>
