<svg width="32" height="42" viewBox="0 0 32 42" fill="none" xmlns="http://www.w3.org/2000/svg">
<path d="M23.5 16H19.3334V14.6083C19.3138 14.0749 19.0835 13.5709 18.693 13.2069C18.3025 12.8429 17.7836 12.6487 17.25 12.6667H14.75C14.2165 12.6487 13.6976 12.8429 13.307 13.2069C12.9165 13.5709 12.6862 14.0749 12.6667 14.6083V16H8.50002C8.27901 16 8.06704 16.0878 7.91076 16.2441C7.75448 16.4004 7.66669 16.6123 7.66669 16.8333C7.66669 17.0544 7.75448 17.2663 7.91076 17.4226C8.06704 17.5789 8.27901 17.6667 8.50002 17.6667H9.33335V26.8333C9.33335 27.4964 9.59675 28.1323 10.0656 28.6011C10.5344 29.07 11.1703 29.3333 11.8334 29.3333H20.1667C20.8297 29.3333 21.4656 29.07 21.9345 28.6011C22.4033 28.1323 22.6667 27.4964 22.6667 26.8333V17.6667H23.5C23.721 17.6667 23.933 17.5789 24.0893 17.4226C24.2456 17.2663 24.3334 17.0544 24.3334 16.8333C24.3334 16.6123 24.2456 16.4004 24.0893 16.2441C23.933 16.0878 23.721 16 23.5 16ZM14.3334 14.6083C14.3334 14.475 14.5084 14.3333 14.75 14.3333H17.25C17.4917 14.3333 17.6667 14.475 17.6667 14.6083V16H14.3334V14.6083ZM21 26.8333C21 27.0544 20.9122 27.2663 20.7559 27.4226C20.5997 27.5789 20.3877 27.6667 20.1667 27.6667H11.8334C11.6123 27.6667 11.4004 27.5789 11.2441 27.4226C11.0878 27.2663 11 27.0544 11 26.8333V17.6667H21V26.8333Z" fill="#67ADB9"/>
<path d="M13.5 25.1667C13.721 25.1667 13.933 25.0789 14.0893 24.9226C14.2456 24.7663 14.3334 24.5543 14.3334 24.3333V21C14.3334 20.779 14.2456 20.567 14.0893 20.4107C13.933 20.2545 13.721 20.1667 13.5 20.1667C13.279 20.1667 13.067 20.2545 12.9108 20.4107C12.7545 20.567 12.6667 20.779 12.6667 21V24.3333C12.6667 24.5543 12.7545 24.7663 12.9108 24.9226C13.067 25.0789 13.279 25.1667 13.5 25.1667Z" fill="#67ADB9"/>
<path d="M18.5 25.1667C18.721 25.1667 18.933 25.0789 19.0893 24.9226C19.2456 24.7663 19.3334 24.5543 19.3334 24.3333V21C19.3334 20.779 19.2456 20.567 19.0893 20.4107C18.933 20.2545 18.721 20.1667 18.5 20.1667C18.279 20.1667 18.067 20.2545 17.9108 20.4107C17.7545 20.567 17.6667 20.779 17.6667 21V24.3333C17.6667 24.5543 17.7545 24.7663 17.9108 24.9226C18.067 25.0789 18.279 25.1667 18.5 25.1667Z" fill="#67ADB9"/>
</svg>
