<svg width="89" height="40" viewBox="0 0 89 40" fill="none" xmlns="http://www.w3.org/2000/svg">
<path d="M33.6789 28.4545C33.5355 28.4545 33.4304 28.5501 33.4304 28.703C33.4304 28.8463 33.5355 28.9418 33.6789 28.9418C33.8222 28.9418 33.9273 28.8463 33.9273 28.703C33.9273 28.5501 33.8222 28.4545 33.6789 28.4545Z" fill="#28505B"/>
<path d="M39.3735 28.4545C39.2301 28.4545 39.125 28.5501 39.125 28.703C39.125 28.8463 39.2301 28.9418 39.3735 28.9418C39.5168 28.9418 39.6219 28.8463 39.6219 28.703C39.6219 28.5501 39.5168 28.4545 39.3735 28.4545Z" fill="#28505B"/>
<path d="M6.11352 28.101H5.84598C5.81732 28.101 5.78866 28.1106 5.7791 28.1392L3.09423 32.8688L0.418909 28.1392C0.3998 28.1106 0.371136 28.101 0.342471 28.101H0.0749396C0.0367208 28.101 0.00805664 28.1201 0.00805664 28.1583V34.8753C0.00805664 34.9135 0.0367208 34.9326 0.0749396 34.9326H0.275589C0.304253 34.9326 0.332917 34.9135 0.332917 34.8753L0.323362 28.5979V28.5883L2.94135 33.2223C2.96046 33.2414 2.98913 33.2606 3.01779 33.2606H3.17067C3.19933 33.2606 3.23755 33.2414 3.2471 33.2223L5.86509 28.5883V28.5979L5.85554 34.8753C5.85554 34.9135 5.8842 34.9326 5.91287 34.9326H6.11352C6.15173 34.9326 6.1804 34.9135 6.1804 34.8753V28.1583C6.1804 28.1201 6.15173 28.101 6.11352 28.101Z" fill="#28505B"/>
<path d="M12.1425 30.0215H11.9514C11.9132 30.0215 11.8941 30.0502 11.8941 30.0884V34.1109C11.4737 34.3307 10.996 34.4644 10.4705 34.4644C9.43855 34.4644 8.76972 33.9772 8.76972 32.8975V30.0884C8.76972 30.0502 8.74106 30.0215 8.70284 30.0215H8.5213C8.48308 30.0215 8.46397 30.0502 8.46397 30.0884V32.907C8.46397 34.1491 9.26657 34.7511 10.4418 34.7511C10.9673 34.7511 11.4737 34.6269 11.8941 34.4071V35.0664C11.9037 35.9645 11.4259 36.5569 10.3558 36.5569C9.66787 36.5569 9.18058 36.2512 8.75062 35.8785C8.72195 35.8499 8.69329 35.8594 8.67418 35.8881L8.56908 36.0123C8.54997 36.041 8.54997 36.0792 8.56908 36.0983C9.06592 36.5474 9.62965 36.8436 10.3558 36.8436C11.6266 36.8436 12.1999 36.1079 12.1999 35.076V30.0884C12.1999 30.0502 12.1808 30.0215 12.1425 30.0215Z" fill="#28505B"/>
<path d="M18.42 28.101H14.5981C14.5599 28.101 14.5312 28.1201 14.5312 28.1583V34.8753C14.5312 34.9135 14.5599 34.9326 14.5981 34.9326H14.7987C14.8274 34.9326 14.8561 34.9135 14.8561 34.8753V31.7031H18.1524C18.1907 31.7031 18.2098 31.684 18.2098 31.6458V31.4643C18.2098 31.4356 18.1907 31.4069 18.1524 31.4069H14.8561V28.3972H18.42C18.4582 28.3972 18.4869 28.3781 18.4869 28.3399V28.1583C18.4869 28.1201 18.4582 28.101 18.42 28.101Z" fill="#28505B"/>
<path d="M21.9361 29.926C20.8182 29.926 20.0347 30.5852 20.0347 31.7414V33.2892C20.0347 34.388 20.9329 35.0282 21.9361 35.0282C22.7483 35.0282 23.3407 34.6651 23.742 34.2925C23.7802 34.2734 23.7802 34.2447 23.7515 34.216L23.6464 34.0918C23.6273 34.0632 23.5986 34.0632 23.57 34.0823C23.2069 34.4071 22.6909 34.7511 21.9457 34.7511C21.0762 34.7511 20.3405 34.216 20.3405 33.2892V32.6586H23.7802C23.8088 32.6586 23.8375 32.6395 23.8375 32.6013V31.7414C23.8375 30.5852 23.054 29.926 21.9361 29.926ZM23.5318 32.3911H20.3405V31.7414C20.3405 30.7572 20.9711 30.2126 21.9361 30.2126C22.9011 30.2126 23.5318 30.7668 23.5318 31.7414V32.3911Z" fill="#28505B"/>
<path d="M28.3378 30.012C28.032 29.9642 27.6976 29.926 27.3727 29.926C26.8281 29.926 26.2262 30.0406 25.7676 30.2604C25.7389 30.2699 25.7198 30.2986 25.7198 30.3273V34.8753C25.7198 34.9135 25.7484 34.9326 25.7771 34.9326H25.9682C26.0064 34.9326 26.0255 34.9135 26.0255 34.8753V30.461C26.4364 30.2986 26.9332 30.2126 27.3919 30.2126C27.7072 30.2126 28.0416 30.2413 28.3378 30.289C28.376 30.2986 28.3951 30.2795 28.3951 30.2413V30.0788C28.3951 30.0406 28.3855 30.0215 28.3378 30.012Z" fill="#28505B"/>
<path d="M31.9686 34.6938C31.7775 34.7129 31.5386 34.7224 31.3953 34.7224C30.6309 34.7224 30.2296 34.2542 30.2296 33.4517V30.3177H31.8443C31.873 30.3177 31.9017 30.289 31.9017 30.2508V30.0884C31.9017 30.0597 31.873 30.0311 31.8443 30.0311H30.2296V28.8463C30.22 28.8081 30.2009 28.789 30.1627 28.789H29.9812C29.943 28.789 29.9239 28.8081 29.9239 28.8463V33.4612C29.9239 34.4453 30.478 35.0091 31.3953 35.0091C31.529 35.0091 31.787 34.9995 31.9686 34.9804C32.0068 34.9708 32.0259 34.9517 32.0259 34.9135V34.7511C32.0259 34.7129 32.0068 34.6938 31.9686 34.6938Z" fill="#28505B"/>
<path d="M33.7744 30.0215H33.5833C33.5451 30.0215 33.526 30.0502 33.526 30.0884V34.8753C33.526 34.9135 33.5451 34.9326 33.5833 34.9326H33.7744C33.8126 34.9326 33.8317 34.9135 33.8317 34.8753V30.0884C33.8317 30.0502 33.8126 30.0215 33.7744 30.0215Z" fill="#28505B"/>
<path d="M37.7014 34.7033C37.5103 34.732 37.2905 34.7415 37.1568 34.7415C36.593 34.7415 36.2395 34.388 36.2395 33.4803V28.1583C36.2395 28.1201 36.2204 28.101 36.1822 28.101H35.9911C35.9529 28.101 35.9338 28.1201 35.9338 28.1583V33.4517C35.9338 34.5696 36.4115 35.0282 37.1472 35.0282C37.3001 35.0282 37.539 35.0091 37.7014 34.99C37.7396 34.9804 37.7587 34.9517 37.7587 34.9135V34.7511C37.7587 34.7129 37.7396 34.7033 37.7014 34.7033Z" fill="#28505B"/>
<path d="M39.469 30.0215H39.2779C39.2397 30.0215 39.2206 30.0502 39.2206 30.0884V34.8753C39.2206 34.9135 39.2397 34.9326 39.2779 34.9326H39.469C39.5072 34.9326 39.5263 34.9135 39.5263 34.8753V30.0884C39.5263 30.0502 39.5072 30.0215 39.469 30.0215Z" fill="#28505B"/>
<path d="M43.6731 34.6938C43.482 34.7129 43.2431 34.7224 43.0998 34.7224C42.3354 34.7224 41.9341 34.2542 41.9341 33.4517V30.3177H43.5489C43.5775 30.3177 43.6062 30.289 43.6062 30.2508V30.0884C43.6062 30.0597 43.5775 30.0311 43.5489 30.0311H41.9341V28.8463C41.9246 28.8081 41.9055 28.789 41.8672 28.789H41.6857C41.6475 28.789 41.6284 28.8081 41.6284 28.8463V33.4612C41.6284 34.4453 42.1825 35.0091 43.0998 35.0091C43.2336 35.0091 43.4915 34.9995 43.6731 34.9804C43.7113 34.9708 43.7304 34.9517 43.7304 34.9135V34.7511C43.7304 34.7129 43.7113 34.6938 43.6731 34.6938Z" fill="#28505B"/>
<path d="M48.8613 30.0215H48.6702C48.632 30.0215 48.6129 30.0502 48.6129 30.0884V34.1109C48.1925 34.3307 47.7147 34.4644 47.1892 34.4644C46.1573 34.4644 45.4885 33.9772 45.4885 32.8975V30.0884C45.4885 30.0502 45.4598 30.0215 45.4216 30.0215H45.2401C45.2018 30.0215 45.1827 30.0502 45.1827 30.0884V32.907C45.1827 34.1491 45.9853 34.7511 47.1605 34.7511C47.6861 34.7511 48.1925 34.6269 48.6129 34.4071V35.0664C48.6224 35.9645 48.1447 36.5569 47.0746 36.5569C46.3866 36.5569 45.8993 36.2512 45.4694 35.8785C45.4407 35.8499 45.412 35.8594 45.3929 35.8881L45.2878 36.0123C45.2687 36.041 45.2687 36.0792 45.2878 36.0983C45.7847 36.5474 46.3484 36.8436 47.0746 36.8436C48.3453 36.8436 48.9186 36.1079 48.9186 35.076V30.0884C48.9186 30.0502 48.8995 30.0215 48.8613 30.0215Z" fill="#28505B"/>
<path d="M54.7298 28.101H54.5291C54.4909 28.101 54.4718 28.1201 54.4718 28.1583V32.9835C54.4718 34.1969 53.9845 34.7224 52.9813 34.7224C52.3411 34.7224 51.8538 34.4644 51.3665 34.0154C51.3283 33.9867 51.2996 33.9867 51.2805 34.0249L51.1754 34.1683C51.1563 34.1969 51.1563 34.2351 51.185 34.2542C51.7105 34.7415 52.2551 35.0282 52.9813 35.0282C54.1661 35.0282 54.7871 34.3593 54.7871 32.9835V28.1583C54.7871 28.1201 54.768 28.101 54.7298 28.101Z" fill="#28505B"/>
<path d="M58.8765 29.926C57.5866 29.926 56.8892 30.719 56.8892 31.7222V33.2319C56.8892 34.2447 57.5866 35.0282 58.8765 35.0282C60.1664 35.0282 60.8639 34.2447 60.8639 33.2319V31.7222C60.8639 30.719 60.176 29.926 58.8765 29.926ZM60.5582 33.2319C60.5582 34.0823 60.004 34.7511 58.8765 34.7511C57.7491 34.7511 57.1949 34.0823 57.1949 33.2319V31.7222C57.1949 30.8814 57.7586 30.2126 58.8765 30.2126C59.9944 30.2126 60.5582 30.8814 60.5582 31.7222V33.2319Z" fill="#28505B"/>
<path d="M66.463 30.0215H66.2814C66.2432 30.0215 66.2145 30.0502 66.2145 30.0884V34.4644C65.7941 34.6269 65.2973 34.7511 64.7718 34.7511C63.7017 34.7511 63.0902 34.2065 63.0902 33.0981V30.0884C63.0902 30.0502 63.071 30.0215 63.0328 30.0215H62.8417C62.8035 30.0215 62.7844 30.0502 62.7844 30.0884V33.0981C62.7844 34.3785 63.5392 35.0282 64.7718 35.0282C65.3833 35.0282 65.9757 34.8944 66.4725 34.6651C66.5107 34.6555 66.5203 34.6173 66.5203 34.5887V30.0884C66.5203 30.0502 66.5012 30.0215 66.463 30.0215Z" fill="#28505B"/>
<path d="M71.2594 30.012C70.9537 29.9642 70.6193 29.926 70.2944 29.926C69.7498 29.926 69.1478 30.0406 68.6892 30.2604C68.6606 30.2699 68.6414 30.2986 68.6414 30.3273V34.8753C68.6414 34.9135 68.6701 34.9326 68.6988 34.9326H68.8899C68.9281 34.9326 68.9472 34.9135 68.9472 34.8753V30.461C69.358 30.2986 69.8549 30.2126 70.3135 30.2126C70.6288 30.2126 70.9632 30.2413 71.2594 30.289C71.2977 30.2986 71.3168 30.2795 71.3168 30.2413V30.0788C71.3168 30.0406 71.3072 30.0215 71.2594 30.012Z" fill="#28505B"/>
<path d="M74.6609 29.926C74.0399 29.926 73.4379 30.0597 72.922 30.289C72.8933 30.3081 72.8742 30.3368 72.8742 30.3655V34.8753C72.8742 34.9135 72.9028 34.9326 72.9315 34.9326H73.1226C73.1608 34.9326 73.1799 34.9135 73.1799 34.8753V30.4897C73.6003 30.3273 74.1354 30.2126 74.6609 30.2126C75.7597 30.2126 76.3808 30.7572 76.3808 31.8656V34.8753C76.3808 34.9135 76.4094 34.9326 76.4476 34.9326H76.6292C76.6674 34.9326 76.6865 34.9135 76.6865 34.8753V31.856C76.6865 30.5661 75.9317 29.926 74.6609 29.926Z" fill="#28505B"/>
<path d="M80.4988 29.926C79.3809 29.926 78.5975 30.5852 78.5975 31.7414V33.2892C78.5975 34.388 79.4956 35.0282 80.4988 35.0282C81.311 35.0282 81.9034 34.6651 82.3047 34.2925C82.3429 34.2734 82.3429 34.2447 82.3142 34.216L82.2091 34.0918C82.19 34.0632 82.1614 34.0632 82.1327 34.0823C81.7696 34.4071 81.2537 34.7511 80.5084 34.7511C79.6389 34.7511 78.9032 34.216 78.9032 33.2892V32.6586H82.3429C82.3716 32.6586 82.4002 32.6395 82.4002 32.6013V31.7414C82.4002 30.5852 81.6167 29.926 80.4988 29.926ZM82.0945 32.3911H78.9032V31.7414C78.9032 30.7572 79.5338 30.2126 80.4988 30.2126C81.4639 30.2126 82.0945 30.7668 82.0945 31.7414V32.3911Z" fill="#28505B"/>
<path d="M87.9229 30.0215H87.7318C87.6935 30.0215 87.6744 30.0502 87.6744 30.0884V34.1109C87.254 34.3307 86.7763 34.4644 86.2508 34.4644C85.2189 34.4644 84.55 33.9772 84.55 32.8975V30.0884C84.55 30.0502 84.5214 30.0215 84.4832 30.0215H84.3016C84.2634 30.0215 84.2443 30.0502 84.2443 30.0884V32.907C84.2443 34.1491 85.0469 34.7511 86.2221 34.7511C86.7476 34.7511 87.254 34.6269 87.6744 34.4071V35.0664C87.684 35.9645 87.2062 36.5569 86.1361 36.5569C85.4482 36.5569 84.9609 36.2512 84.5309 35.8785C84.5023 35.8499 84.4736 35.8594 84.4545 35.8881L84.3494 36.0123C84.3303 36.041 84.3303 36.0792 84.3494 36.0983C84.8462 36.5474 85.41 36.8436 86.1361 36.8436C87.4069 36.8436 87.9802 36.1079 87.9802 35.076V30.0884C87.9802 30.0502 87.9611 30.0215 87.9229 30.0215Z" fill="#28505B"/>
<path d="M48.9167 25.9225C48.9358 25.7888 48.9167 25.6703 48.8613 25.5767C48.7715 25.4295 48.6205 25.3856 48.5116 25.355C48.4734 25.3454 48.439 25.3359 48.4084 25.3206C48.0606 25.1505 48.202 23.9734 48.2765 23.3409C48.2861 23.253 48.2976 23.1708 48.3052 23.0963C48.3969 22.2459 48.3816 21.3611 48.2593 20.4611L48.395 20.4553C48.4504 20.4534 48.4944 20.4114 48.5039 20.3579C48.5689 19.9145 48.6205 19.4578 48.6549 19.003C48.7122 18.2616 48.7275 17.5067 48.6989 16.7519C49.0562 17.438 49.5569 17.9463 49.7938 18.0323C49.8225 18.0418 49.8492 18.0475 49.8741 18.0475C49.9047 18.0475 49.9314 18.0399 49.9543 18.0246C50.0614 17.9577 50.025 17.845 49.9658 17.6558C49.918 17.5029 49.8435 17.2698 49.7843 16.9373C49.7537 16.7615 49.7346 16.5857 49.7212 16.406C50.1569 16.7863 50.52 17.2163 50.7913 17.694C50.8429 17.7877 50.8926 17.8775 50.9289 17.9558C50.9595 18.0514 50.9633 18.1316 50.9671 18.2004C50.9729 18.3036 50.9767 18.4106 51.0703 18.5062C51.1391 18.575 51.2442 18.6208 51.3398 18.6208C51.3914 18.6208 51.4391 18.6075 51.4774 18.5769C51.5653 18.5043 51.5481 18.3953 51.5347 18.3227L51.5309 18.2979C51.5595 18.3055 51.5978 18.3208 51.6245 18.3304C51.7315 18.3705 51.8519 18.4144 51.9341 18.3265C52.0048 18.2501 51.9685 18.1507 51.9436 18.0858L51.9264 18.038C51.9455 18.038 51.9704 18.038 51.9876 18.038C52.0621 18.0418 52.1768 18.0475 52.2303 17.952C52.322 17.7934 52.1156 17.5927 52.0506 17.5354C51.9322 17.4303 51.785 17.3653 51.6092 17.3405C51.1793 16.6831 50.7111 16.0334 50.2142 15.4104C50.0193 15.1658 49.8282 14.9346 49.641 14.7187C49.7117 14.2925 50.0977 11.4624 48.2804 10.0044C47.6994 9.54003 47.0593 9.27632 46.3752 9.22473C45.5248 9.15976 44.6553 9.44066 43.9234 10.0197C42.8839 10.8376 42.3106 12.2287 42.4615 13.5607C42.5246 14.1206 42.7195 14.6403 42.9393 15.0493C42.6526 15.2977 42.3622 15.5652 42.0717 15.8519C41.7564 16.1614 41.4545 16.4787 41.1697 16.7997C41.0379 16.7959 40.8659 16.8169 40.7035 16.9182C40.6289 16.964 40.3939 17.1265 40.457 17.2985C40.4971 17.4016 40.6098 17.415 40.6844 17.4246C40.7016 17.4265 40.7245 17.4284 40.7417 17.4322L40.7169 17.4743C40.6825 17.5335 40.6289 17.6252 40.6844 17.7112C40.7188 17.7647 40.7684 17.7838 40.8258 17.7857C40.7226 18.3285 40.5716 18.8673 40.371 19.389C40.3595 19.4177 40.348 19.4483 40.3366 19.4769C40.3213 19.1979 40.2429 18.8845 40.0289 18.596C40.0174 18.5788 39.8455 18.3189 39.4881 18.1221C39.727 17.9902 39.8856 17.7189 39.8818 17.4437C39.8818 17.3902 39.8722 17.3329 39.855 17.2755C39.9448 17.2297 40.0327 17.1647 40.113 17.0749C40.306 16.857 40.3404 16.6048 40.348 16.5073C40.3519 16.4443 40.3041 16.3888 40.241 16.385C40.1761 16.3812 40.1225 16.429 40.1187 16.492C40.113 16.5666 40.0862 16.7577 39.941 16.922C39.8818 16.9889 39.8149 17.0367 39.7461 17.073C39.706 17.0271 39.6563 16.9889 39.5951 16.964C39.4843 16.9182 39.3448 16.9373 39.2416 17.0137C39.1518 17.0806 39.104 17.1762 39.1136 17.2793C39.1174 17.3329 39.1594 17.3749 39.211 17.3825C39.2435 17.3864 39.4251 17.4093 39.6372 17.3558C39.6448 17.3864 39.6486 17.4169 39.6486 17.4456C39.6525 17.6501 39.5244 17.8507 39.341 17.9367C39.297 17.9558 39.2512 17.9692 39.2034 17.9768C39.2149 17.952 39.2263 17.9252 39.2359 17.8985C39.2607 17.8297 39.2836 17.7418 39.2454 17.6501C39.1919 17.5259 39.0505 17.4685 38.8575 17.4953C38.8078 17.5029 38.6377 17.5354 38.5479 17.6539C38.5078 17.7093 38.4906 17.7724 38.5021 17.8373C38.5059 17.8603 38.5135 17.8832 38.5231 17.9061C38.4505 17.9157 38.3721 17.9367 38.3014 17.9845C38.1772 18.0705 38.0989 18.2539 38.1887 18.4049C38.29 18.5731 38.5174 18.5673 38.6874 18.489C38.8288 18.424 38.9531 18.3265 39.0524 18.2081C39.0734 18.2081 39.0945 18.2119 39.1155 18.2119C39.5913 18.3705 39.8168 18.7049 39.8321 18.7278C40.327 19.3948 39.9926 20.2241 39.9888 20.2318C39.9659 20.2891 39.9907 20.3541 40.0461 20.3789L40.0939 20.3885C40.1359 20.3885 40.1761 20.3655 40.1971 20.3254C40.3308 20.0617 40.4589 19.7731 40.5754 19.4693C40.7971 18.8941 40.9615 18.2979 41.0666 17.6978C41.0704 17.6787 41.0666 17.6615 41.0627 17.6462V17.6348C41.0513 17.5736 40.9939 17.5316 40.9309 17.5431C40.9634 17.4819 40.9901 17.4036 40.95 17.3233C40.9003 17.2182 40.7837 17.2029 40.7054 17.1934C40.7321 17.1666 40.7704 17.136 40.8143 17.1093C40.95 17.0252 41.0971 17.0195 41.1984 17.029C41.2347 17.0309 41.271 17.0175 41.2959 16.9908C41.5863 16.6602 41.8978 16.3315 42.2227 16.0124C42.4979 15.741 42.7749 15.4888 43.0463 15.2499C43.2393 15.5652 43.4361 15.7888 43.568 15.8672C43.6138 15.8939 43.6559 15.9073 43.6941 15.9073C43.7151 15.9073 43.7361 15.9035 43.7552 15.8958C43.8967 15.8366 43.8565 15.6799 43.7896 15.42C43.7457 15.2461 43.6845 15.0034 43.6425 14.7015L43.6578 14.69L43.6941 14.6594C43.7457 14.6174 43.8546 14.5295 44.017 14.455C44.0572 14.4359 44.1527 14.3919 44.4833 14.3136C44.6419 14.2753 44.7986 14.2448 44.9591 14.218C45.2706 14.3766 45.5859 14.434 45.8248 14.476C46.0159 14.5104 46.2013 14.5238 46.3771 14.5238C46.9255 14.5238 47.3918 14.3843 47.7166 14.2467C47.7759 14.2218 47.8026 14.155 47.7778 14.0957C47.7529 14.0365 47.6861 14.0097 47.6268 14.0346C47.2274 14.2027 46.5968 14.3785 45.8611 14.2486C45.519 14.1874 45.005 14.0957 44.6152 13.6791C44.1413 13.1727 44.0018 12.3663 44.2674 11.6726C44.2999 11.5905 44.4432 11.2656 44.7413 10.9694C44.7623 10.9503 44.7814 10.9312 44.8024 10.9121C44.8216 10.8949 44.8407 10.8796 44.8598 10.8643C44.9056 10.8261 44.9477 10.7936 44.984 10.7688C45.0356 10.7325 45.0872 10.6962 45.1445 10.6637C45.5152 10.4573 46.0274 10.3426 46.6694 10.3216C46.7459 10.3197 46.7803 10.3178 46.8147 10.2757L46.7268 10.2031L46.7096 10.0904C46.7096 10.0904 46.6847 10.0904 46.6618 10.0923C45.9834 10.1152 45.435 10.2394 45.0337 10.4649C44.9878 10.4898 44.9458 10.5203 44.9037 10.549L44.8865 10.5567L44.856 10.5796C44.7986 10.6197 44.7451 10.6618 44.6954 10.7038L44.6725 10.7229L44.6668 10.7286C44.6362 10.7573 44.6056 10.7841 44.577 10.8127C43.5336 11.7854 43.3826 13.2893 43.3692 13.9046C43.354 14.627 43.4915 15.1601 43.5718 15.4792C43.5833 15.5213 43.5928 15.5652 43.6024 15.6054C43.3425 15.355 42.7979 14.5333 42.6851 13.5358C42.5437 12.2803 43.0845 10.9713 44.0629 10.2012C44.7489 9.65851 45.5611 9.3948 46.3541 9.45595C46.9905 9.50372 47.5886 9.75024 48.1332 10.1859C49.9543 11.6459 49.4269 14.6059 49.404 14.7302C49.3983 14.7645 49.404 14.8009 49.4288 14.8276C49.6257 15.0531 49.8282 15.2977 50.0327 15.5557C50.5353 16.1863 51.0111 16.8456 51.4449 17.5125C51.464 17.5411 51.4946 17.5603 51.5309 17.5641C51.6799 17.5775 51.8041 17.6271 51.8978 17.7093C51.936 17.7418 51.9666 17.78 51.9895 17.8106C51.9092 17.8068 51.7927 17.8029 51.7277 17.8985C51.6761 17.973 51.6914 18.0533 51.7124 18.1202L51.7048 18.1163C51.5939 18.0762 51.4583 18.0246 51.3608 18.1125C51.2805 18.1851 51.2977 18.2921 51.3092 18.3609L51.313 18.3896C51.2882 18.3839 51.2557 18.3686 51.2328 18.3457C51.2041 18.317 51.2003 18.2845 51.1945 18.1909C51.1907 18.1106 51.185 18.0112 51.141 17.8737C51.0952 17.7781 51.0455 17.6806 50.9901 17.5832C50.6652 17.0099 50.22 16.4978 49.6715 16.0602C49.6505 16.0372 49.6199 16.0219 49.5855 16.0258H49.5817L49.5569 16.0334L49.5397 16.0391L49.5225 16.0525L49.5053 16.0678L49.5015 16.0716L49.4938 16.085L49.4823 16.106L49.4785 16.129V16.1442C49.4843 16.4309 49.511 16.7042 49.5588 16.9774C49.6199 17.3252 49.6964 17.566 49.7461 17.7246L49.7518 17.7437C49.4823 17.5373 48.9301 16.9144 48.6625 16.0735L48.6511 16.0353C48.4925 15.5155 48.46 14.9633 48.5555 14.3938C48.5651 14.3308 48.523 14.2715 48.4619 14.262C48.3988 14.2524 48.3396 14.2945 48.33 14.3556C48.2269 14.969 48.2632 15.5633 48.439 16.1251C48.5039 17.0844 48.4982 18.0456 48.4256 18.9858C48.3931 19.4043 48.3472 19.8228 48.2899 20.2298L48.1217 20.2356C48.0893 20.2356 48.0587 20.2528 48.0377 20.2776C48.0167 20.3025 48.0071 20.3349 48.0128 20.3674C48.1485 21.2923 48.1695 22.2019 48.0759 23.0714C48.0682 23.1459 48.0587 23.2262 48.0472 23.3122C47.9479 24.1454 47.8103 25.2843 48.3052 25.5251C48.3492 25.5461 48.3988 25.5614 48.4466 25.5728C48.5536 25.6034 48.6224 25.6263 48.6625 25.6913C48.6969 25.7467 48.7027 25.8232 48.6836 25.9187H47.3765L47.3421 25.0148C47.3211 24.4568 47.3 23.9008 47.2981 23.8453C47.2427 22.3835 47.2102 21.5006 46.7306 21.3248C46.658 21.2961 46.5567 21.2981 46.335 21.3H46.293C46.0274 21.3038 45.6241 21.3095 45.4139 21.407C44.9935 21.6019 44.9725 22.2688 44.94 23.2797C44.9324 23.509 44.9247 23.7574 44.9114 24.0212C44.8808 24.6346 44.8235 25.2728 44.7413 25.9168H43.5317C43.5126 25.8213 43.5202 25.7448 43.5527 25.6894C43.5928 25.6225 43.6616 25.5996 43.7686 25.569C43.8164 25.5556 43.8642 25.5423 43.91 25.5193C44.405 25.2786 44.2674 24.1377 44.168 23.3065C44.1585 23.2205 44.1489 23.1383 44.1394 23.0657C44.0457 22.1962 44.0667 21.2866 44.2024 20.3617C44.2062 20.3292 44.1986 20.2967 44.1776 20.2719C44.1565 20.247 44.126 20.2318 44.0935 20.2298L43.9387 20.2241C43.9311 19.7005 43.9444 19.1654 43.975 18.6342C44.0075 18.0762 44.0534 17.652 44.0897 17.3099C44.1642 16.6124 44.1986 16.2933 43.9463 16.1175C43.4457 15.7697 42.345 16.4806 41.743 17.1303C41.594 17.2927 41.5347 17.4016 41.5309 17.4074C41.4717 17.522 41.4487 17.6195 41.4315 17.6978C41.4105 17.7896 41.401 17.8201 41.3685 17.845C41.3513 17.8584 41.3284 17.8679 41.3035 17.8717C41.2653 17.8794 41.2366 17.9061 41.2233 17.9405L41.2137 17.9616C40.9099 19.2304 40.6041 20.5012 40.2984 21.7701L40.2735 21.8713C40.2678 21.9019 40.1283 22.6529 40.0366 24.6651C40.0289 24.8409 40.0366 24.9728 40.048 25.1543C40.0595 25.311 40.0652 25.3817 40.092 25.4391C40.1569 25.5767 40.2678 25.6283 40.3652 25.6741C40.4379 25.7066 40.5047 25.7391 40.5659 25.8079C40.5946 25.8385 40.6175 25.8767 40.6366 25.9187H39.4136C39.3945 25.8499 39.3754 25.7697 39.3563 25.6779C39.3276 25.5499 39.3123 25.4524 39.2989 25.3779C39.2722 25.2136 39.2569 25.1238 39.1652 25.034C39.0276 24.8983 38.846 24.8983 38.5384 24.8964C38.2212 24.8945 37.9899 24.8925 37.8332 25.0626C37.7587 25.1429 37.7453 25.2155 37.709 25.4085C37.6995 25.4601 37.688 25.5232 37.6727 25.5996C37.646 25.7238 37.623 25.8308 37.602 25.9206H36.5892C36.5644 25.7945 36.5586 25.6626 36.6217 25.59C36.6485 25.5595 36.6905 25.5384 36.7383 25.5136C36.8243 25.4696 36.9332 25.4161 36.9905 25.2805C37.023 25.204 37.0364 25.1199 37.0287 25.032C37.0039 24.6957 37.0211 24.5868 37.0402 24.5562C37.0536 24.5352 37.065 24.5218 37.0746 24.5084C37.516 24.002 36.765 21.4032 36.6083 20.8834C36.3484 20.1439 36.1879 19.3814 36.1287 18.617C36.1172 18.4508 36.1096 18.2883 36.1057 18.1297C36.1057 18.0743 36.0599 18.0265 36.0102 18.0208L35.993 17.9979C35.9643 17.9711 35.9586 17.9386 35.951 17.8488C35.9433 17.7685 35.9357 17.6692 35.8898 17.545C35.886 17.5335 35.842 17.4208 35.7178 17.2411C35.5248 16.966 34.7853 16.2494 33.8336 15.4181C33.7973 15.3856 33.7438 15.3799 33.7018 15.4047C33.6597 15.4296 33.6368 15.4773 33.6464 15.5251C33.8451 16.5608 33.975 17.6099 34.0343 18.6438C34.063 19.1578 34.0763 19.6776 34.0706 20.2337L33.9177 20.2394C33.8852 20.2394 33.8547 20.2566 33.8336 20.2814C33.8126 20.3063 33.8031 20.3388 33.8088 20.3713C33.9445 21.2942 33.9655 22.2038 33.8719 23.0752C33.8642 23.1498 33.8547 23.23 33.8432 23.316C33.7438 24.1492 33.6062 25.2881 34.1012 25.5289C34.1451 25.5499 34.1948 25.5652 34.2426 25.5767C34.3496 25.6072 34.4184 25.6302 34.4585 25.6951C34.491 25.7506 34.4986 25.8251 34.4795 25.9206H32.8896C32.8075 25.2766 32.7501 24.6403 32.7196 24.025C32.7062 23.7594 32.6985 23.5109 32.6909 23.2835C32.6584 22.2726 32.6374 21.6057 32.217 21.4108C32.0068 21.3133 31.6055 21.3076 31.3379 21.3038H31.2959C31.0761 21.3038 30.9768 21.3 30.9023 21.3286C30.4054 21.5044 30.3729 22.4446 30.3213 23.8664C30.2888 24.7588 30.2659 25.4754 30.2525 25.9225H28.5652C28.548 25.8289 28.5537 25.7525 28.5862 25.697C28.6263 25.6302 28.6951 25.6072 28.8021 25.5767C28.8499 25.5633 28.8977 25.5499 28.9435 25.527C29.4385 25.2862 29.3009 24.1473 29.2015 23.3141C29.192 23.2262 29.1805 23.1459 29.1729 23.0714C29.0792 22.2019 29.1002 21.2923 29.2359 20.3674C29.2397 20.3349 29.2321 20.3025 29.2111 20.2776C29.1901 20.2528 29.1595 20.2375 29.127 20.2356L28.9607 20.2298C28.9015 19.819 28.8556 19.4005 28.8251 18.9839C28.7352 17.8201 28.7524 16.6315 28.8786 15.4506C28.8843 15.3971 28.8518 15.3474 28.8021 15.3302C28.7524 15.313 28.697 15.3302 28.6684 15.378C28.4448 15.7315 28.246 15.999 28.1161 16.171L28.0511 16.2551C27.8275 16.5436 27.3632 17.1437 27.1186 17.5813C27.0192 17.7628 26.9906 17.8488 26.9791 17.9023C26.9485 18.0284 26.9504 18.1278 26.9523 18.2081C26.9523 18.3017 26.9523 18.3342 26.9256 18.3648C26.9027 18.3915 26.8683 18.4087 26.8491 18.4183V18.3858C26.8587 18.3151 26.8683 18.2081 26.7823 18.1412C26.6791 18.0609 26.5453 18.1221 26.4402 18.1698L26.4326 18.1737C26.4498 18.1068 26.4574 18.0246 26.402 17.9558C26.3294 17.866 26.2128 17.8775 26.1325 17.887C26.1536 17.8545 26.1822 17.8163 26.2185 17.78C26.3294 17.6673 26.4727 17.6252 26.5721 17.6099C26.6103 17.6042 26.6428 17.5794 26.6581 17.545C27.1415 16.5226 27.5008 15.7525 27.8275 15.0378C28.0798 14.4913 28.2957 14.0193 28.8155 13.7174C29.0601 13.5759 29.3334 13.4938 29.6506 13.467C29.6926 13.4632 29.7308 13.4364 29.7461 13.3963C29.7633 13.3562 29.7557 13.3122 29.7289 13.2778C29.4767 12.9759 29.2799 12.6644 29.1289 12.3224C28.5633 11.0478 28.848 9.87636 28.9416 9.49226C29.0735 8.94955 29.2722 8.5215 29.3964 8.32276C29.3964 8.382 29.3964 8.44506 29.3964 8.49475C29.3907 8.77183 29.3869 8.94 29.5283 8.96866C29.6601 8.99541 29.7156 8.85592 29.7996 8.64571C29.8398 8.54443 29.9621 8.23295 30.0309 8.22913C30.0939 8.23104 30.222 8.51386 30.2774 8.63425C30.3978 8.89605 30.5029 9.12154 30.6844 9.10052C30.8086 9.08523 30.8526 8.97439 30.9023 8.84445C30.9443 8.73553 31.0016 8.58456 31.1258 8.41258C31.2902 8.18709 31.3972 8.10491 31.4392 8.08581C31.4698 8.16224 31.4564 8.40302 31.4507 8.53679C31.4354 8.84445 31.4239 9.06612 31.5845 9.11963C31.7545 9.17504 31.894 8.95146 32.087 8.64571C32.152 8.54252 32.2495 8.38391 32.3183 8.30748C32.3297 8.40875 32.3221 8.58838 32.3183 8.70495C32.3049 9.03937 32.2953 9.25912 32.452 9.30308C32.6106 9.34512 32.7043 9.15593 32.8571 8.84063C32.9374 8.67629 33.1228 8.2941 33.2107 8.28645C33.31 8.31321 33.4801 8.84636 33.5279 9.73686C33.5738 10.6159 33.6674 12.4466 32.5973 13.1192C32.0718 13.4498 31.2997 13.488 31.2902 13.488C31.0475 13.5014 30.8086 13.488 30.5583 13.4422C30.4952 13.4307 30.436 13.4728 30.4245 13.5358C30.4131 13.5989 30.4551 13.6581 30.5182 13.6696C30.7857 13.7174 31.0418 13.7326 31.2997 13.7193C31.3036 13.7193 31.5749 13.7078 31.9151 13.6294C32.3928 13.597 32.838 13.6638 33.2355 13.8282C33.591 13.9772 34.0477 14.2715 35.3911 16.0659C35.6643 16.4309 35.9376 16.8093 36.1822 17.1609C36.2032 17.1895 36.2357 17.2086 36.272 17.2106C36.3733 17.2144 36.5185 17.2392 36.6408 17.3405C36.679 17.373 36.7134 17.4074 36.7364 17.438C36.6561 17.436 36.5376 17.438 36.4746 17.5354C36.4268 17.6119 36.444 17.6921 36.4669 17.7571C36.4325 17.7475 36.3981 17.7552 36.3714 17.7743L36.3427 17.8029L36.3255 17.8316V17.8393L36.3217 17.8584V17.8889C36.3465 18.0189 36.3867 18.2291 36.4287 18.489C36.4707 18.7527 36.4956 18.9514 36.5147 19.1139C36.5529 19.4292 36.5778 19.6203 36.6771 19.884C36.7268 20.0999 36.8434 20.3751 37.1052 20.6331C37.2733 20.8089 37.4625 20.9273 37.646 21.0095C37.8963 21.128 38.1677 21.1872 38.4467 21.1872C38.4715 21.1872 38.4963 21.1872 38.5231 21.1872C38.9263 21.1777 39.3295 21.042 39.6697 20.7993C39.7213 20.763 39.7327 20.6923 39.6964 20.6407C39.6601 20.5891 39.5894 20.5757 39.5378 20.612C39.2034 20.8375 38.8288 20.956 38.4639 20.9598C38.4428 20.9598 38.4218 20.9598 38.3989 20.9598C38.2708 20.9541 38.0262 20.9273 37.7683 20.8184C37.7377 20.805 37.7071 20.7897 37.6765 20.7745C37.5141 20.6866 37.3842 20.591 37.281 20.4916L37.2676 20.4764C37.065 20.2623 36.979 20.0387 36.8969 19.8228C36.7975 19.3737 36.9447 18.8903 37.2791 18.5578C37.5084 18.3323 37.7683 18.2367 37.9441 18.1966C38.0052 18.1832 38.0454 18.1202 38.0301 18.059C38.0167 17.9979 37.9555 17.9596 37.8925 17.973C37.6861 18.0208 37.3842 18.1316 37.1166 18.3953C36.9408 18.5692 36.8109 18.7775 36.7287 19.003C36.7096 18.8559 36.6867 18.6801 36.6523 18.4584C36.6236 18.2845 36.5969 18.1355 36.5758 18.0132C36.6198 18.0112 36.6618 17.9979 36.6943 17.9577C36.7631 17.8775 36.723 17.78 36.6943 17.717L36.6752 17.6711C36.6943 17.6711 36.7173 17.6711 36.7345 17.6711C36.8109 17.6711 36.9236 17.673 36.9752 17.5755C37.0612 17.415 36.8472 17.222 36.7803 17.1666C36.6313 17.0443 36.4631 17.0003 36.3331 16.987C36.0943 16.6468 35.8325 16.2818 35.5688 15.9302C34.191 14.09 33.7018 13.7804 33.3177 13.618C33.0693 13.5167 32.8055 13.4517 32.5285 13.4192C32.5915 13.3887 32.6546 13.3543 32.7157 13.318C33.8986 12.5727 33.8012 10.6522 33.7534 9.7273C33.7266 9.2381 33.6234 8.09727 33.2298 8.06287C32.9928 8.03803 32.8247 8.382 32.6489 8.74508C32.6145 8.81387 32.5743 8.89604 32.538 8.96484C32.538 8.88649 32.5418 8.79285 32.5438 8.72024C32.559 8.36289 32.5686 8.103 32.3947 8.0495C32.2227 7.9979 32.0832 8.22148 31.8883 8.53106C31.8272 8.62851 31.7354 8.77374 31.6705 8.854C31.6666 8.77183 31.6705 8.64762 31.6762 8.5559C31.6934 8.2253 31.7087 7.94057 31.5176 7.86987C31.422 7.83547 31.2596 7.84121 30.9328 8.28837C30.7933 8.48137 30.7264 8.65527 30.6825 8.76992C30.671 8.8005 30.6577 8.83489 30.6462 8.85974C30.5965 8.8005 30.5258 8.64571 30.4818 8.54634C30.3538 8.26543 30.2239 8.00172 30.0194 8.00746C29.8283 8.01319 29.7156 8.23868 29.6219 8.4699C29.6277 8.20811 29.6238 8.03421 29.4901 7.9979C29.4633 7.99026 29.4194 7.98835 29.3697 8.01701C29.1805 8.12976 28.8747 8.79668 28.7161 9.4464C28.6187 9.84961 28.3187 11.0783 28.9149 12.4236C29.0486 12.7237 29.2149 13.0027 29.4194 13.2702C29.1537 13.3141 28.9168 13.3982 28.697 13.5243C28.1142 13.8626 27.8715 14.39 27.6097 14.9614C27.2925 15.6512 26.9409 16.4041 26.4708 17.4016C26.3045 17.438 26.1593 17.5144 26.0504 17.6252C26.0064 17.6692 25.7924 17.8966 25.8994 18.0533C25.9625 18.145 26.0752 18.1316 26.1497 18.1221C26.1669 18.1202 26.1899 18.1183 26.2071 18.1163L26.1937 18.1641C26.1746 18.231 26.144 18.3323 26.2204 18.403C26.3083 18.4871 26.4268 18.4336 26.53 18.3858C26.5549 18.3743 26.5931 18.3571 26.6217 18.3476V18.3724C26.6122 18.445 26.6026 18.5539 26.6944 18.6208C26.8109 18.7049 27.0001 18.6361 27.0957 18.5234C27.1817 18.424 27.1797 18.317 27.1778 18.2119C27.1778 18.1412 27.1759 18.0628 27.1988 17.9616C27.2027 17.9405 27.218 17.8756 27.3154 17.6998C27.5505 17.2793 28.0091 16.687 28.2288 16.4041L28.2957 16.3181C28.376 16.213 28.483 16.0697 28.6053 15.892C28.5193 16.9354 28.5155 17.9826 28.5938 19.0107C28.6282 19.4636 28.6798 19.9184 28.7448 20.3655C28.7524 20.419 28.7983 20.4611 28.8537 20.463L28.9894 20.4687C28.8671 21.3688 28.8518 22.2535 28.9435 23.1039C28.9512 23.1784 28.9607 23.2606 28.9722 23.3485C29.0486 23.981 29.1881 25.1582 28.8423 25.3263C28.8117 25.3416 28.7773 25.3493 28.7391 25.3607C28.6301 25.3913 28.4792 25.4333 28.3894 25.5824C28.332 25.6779 28.3148 25.7926 28.3339 25.9264H18.5824V24.0403C19.0716 24.0364 19.7424 23.9371 20.1819 23.4995C20.6481 23.0332 20.7227 22.2898 20.7265 21.8885V21.5981H20.7284H20.4379C20.0347 21.6038 19.2895 21.6764 18.8251 22.1389C18.6264 22.3376 18.5022 22.586 18.4219 22.8364C18.3397 22.5841 18.2155 22.3357 18.0187 22.1389C17.5543 21.6764 16.8091 21.6019 16.4058 21.6H16.1154V21.8885C16.1211 22.2898 16.1956 23.0351 16.6619 23.4995C17.1053 23.9409 17.7836 24.0364 18.2747 24.0403H18.2824L18.2977 24.0422V25.9283H11.2329V20.4267C14.2197 20.3063 16.6256 16.4768 16.6256 11.7816C16.6256 7.08638 14.1414 3.125 11.0896 3.125C8.03784 3.125 5.55361 7.00612 5.55361 11.7758C5.55361 16.5455 7.95949 20.3005 10.9463 20.4209V25.9225H0.0539192V26.2092H88.1331V25.9225H48.9167ZM38.6014 18.2845C38.525 18.3208 38.4218 18.3304 38.3951 18.2883C38.3779 18.2597 38.4008 18.2042 38.4409 18.1775C38.4849 18.1488 38.546 18.1335 38.632 18.1335H38.6664C38.7161 18.1355 38.7658 18.1393 38.8116 18.145C38.7505 18.2023 38.6798 18.2482 38.6034 18.2845H38.6014ZM39.0295 17.8221C39.0142 17.8622 38.997 17.9004 38.976 17.9386C38.9435 17.9329 38.911 17.9272 38.8766 17.9214C38.8403 17.9023 38.8059 17.8794 38.7753 17.8507C38.7448 17.824 38.739 17.8087 38.7428 17.7915C38.7658 17.7609 38.8327 17.7322 38.8976 17.7227C38.9817 17.7112 39.039 17.7265 39.0448 17.7399C39.0486 17.7475 39.0486 17.7666 39.0295 17.8201V17.8221ZM43.6024 13.9104C43.61 13.5587 43.6654 12.8995 43.9196 12.2325C43.8756 12.8269 44.0629 13.4231 44.4527 13.8397C44.5273 13.918 44.6037 13.983 44.684 14.0441C44.6018 14.0613 44.5196 14.0747 44.4355 14.0938C44.126 14.1683 44.0037 14.2142 43.9253 14.2505C43.7896 14.3136 43.6884 14.3824 43.6177 14.4359C43.6043 14.2734 43.5966 14.0995 43.6005 13.9123L43.6024 13.9104ZM16.8721 23.2912C16.4804 22.9013 16.4154 22.2497 16.4116 21.8809C16.7823 21.8828 17.4339 21.9478 17.8238 22.3357C18.2155 22.7274 18.2824 23.3772 18.2843 23.7479C17.9136 23.746 17.2639 23.681 16.8721 23.2912ZM10.9463 12.4638L9.53219 11.0325L9.32772 11.2331L10.9444 12.8708V20.1324C8.11618 20.0101 5.83834 16.3086 5.83834 11.7739C5.83834 7.23926 8.19453 3.41164 11.0896 3.41164C13.9847 3.41164 16.339 7.16473 16.339 11.7758C16.339 16.3869 14.0611 20.012 11.2329 20.1343V16.3965L13.0483 14.5582L12.8439 14.3575L11.231 15.9895V9.2381H10.9444V12.4638H10.9463ZM19.0372 22.3357C19.427 21.9478 20.0787 21.8828 20.4494 21.8809C20.4456 22.2516 20.3806 22.9013 19.9889 23.2912C19.6029 23.6753 18.9646 23.7441 18.592 23.7479V23.639H18.5805C18.5939 23.2606 18.6818 22.693 19.0372 22.3357ZM30.4914 25.9225C30.5048 25.4754 30.5277 24.7607 30.5602 23.874C30.6022 22.6892 30.6385 21.6669 30.9902 21.5427C31.0265 21.5293 31.1411 21.5312 31.3036 21.5331H31.3437C31.5749 21.5369 31.9628 21.5427 32.1291 21.621C32.4215 21.7567 32.4406 22.4007 32.4692 23.2931C32.4769 23.5243 32.4845 23.7727 32.4979 24.0403C32.5285 24.6518 32.5858 25.2843 32.6661 25.9244H30.4933L30.4914 25.9225ZM36.3637 25.9225H34.7184C34.7356 25.7888 34.7184 25.6722 34.663 25.5786C34.5732 25.4314 34.4222 25.3875 34.3133 25.3569C34.2751 25.3473 34.2407 25.3378 34.2101 25.3225C33.8623 25.1524 34.0037 23.9753 34.0782 23.3428C34.0878 23.2549 34.0993 23.1727 34.1069 23.0982C34.1986 22.2478 34.1833 21.363 34.061 20.463L34.1967 20.4572C34.2579 20.4553 34.3056 20.4056 34.3056 20.3445C34.3133 19.7426 34.3037 19.1826 34.2712 18.6304C34.2177 17.694 34.1069 16.7462 33.9407 15.8079C34.856 16.622 35.4006 17.1742 35.5382 17.3711C35.6471 17.5259 35.6834 17.6214 35.6834 17.6214C35.7178 17.717 35.7255 17.7972 35.7312 17.8679C35.7408 17.9711 35.7484 18.0762 35.8439 18.166L35.886 18.1909C35.8898 18.3361 35.8955 18.4832 35.907 18.6361C35.9663 19.4215 36.1325 20.205 36.3962 20.9579C36.7402 22.1045 37.1835 24.0441 36.8988 24.3709C36.8873 24.3842 36.8701 24.4072 36.8491 24.4396C36.7994 24.5218 36.7746 24.6537 36.8052 25.055C36.809 25.1066 36.8052 25.1505 36.7841 25.1926C36.7612 25.2499 36.7153 25.2747 36.6408 25.3129C36.5797 25.3435 36.5109 25.3779 36.4535 25.4448C36.358 25.5575 36.3293 25.7162 36.3637 25.9244V25.9225ZM37.8428 25.9225C37.8619 25.8423 37.881 25.7506 37.902 25.6474C37.9173 25.569 37.9307 25.506 37.9403 25.4524C37.9747 25.2747 37.9804 25.2499 38.009 25.2193C38.0931 25.1276 38.2422 25.1257 38.5479 25.1257C38.825 25.1257 38.9416 25.1314 39.0085 25.1964C39.0429 25.2308 39.0505 25.2633 39.0773 25.4161C39.0906 25.4945 39.1078 25.5939 39.1365 25.7276C39.1518 25.7983 39.1671 25.8614 39.1824 25.9187H37.8428V25.9225ZM43.3616 25.5767C43.3043 25.6722 43.2871 25.7888 43.3062 25.9225H40.8869C40.8544 25.8174 40.8067 25.7276 40.7417 25.6569C40.6519 25.5556 40.5506 25.5079 40.4684 25.4716C40.3805 25.4314 40.3328 25.4066 40.306 25.3473C40.2964 25.3244 40.2888 25.225 40.285 25.1467C40.2735 24.9728 40.2659 24.8486 40.2735 24.6842C40.3633 22.695 40.5047 21.9306 40.5047 21.9287L40.5277 21.8331C40.8277 20.5834 41.1296 19.3336 41.4296 18.0839C41.4583 18.0724 41.4851 18.059 41.5099 18.0418C41.6188 17.9654 41.6418 17.8603 41.6647 17.759C41.68 17.6902 41.6972 17.6138 41.743 17.5259C41.743 17.5259 41.7946 17.4341 41.9207 17.2965C42.5781 16.5895 43.5221 16.1041 43.826 16.3162C43.9597 16.4099 43.9425 16.6411 43.8718 17.2946C43.8355 17.6386 43.7896 18.0667 43.7552 18.6304C43.7228 19.2037 43.7113 19.7808 43.7209 20.3464C43.7209 20.4076 43.7705 20.4553 43.8298 20.4592L43.9655 20.4649C43.8432 21.3649 43.8279 22.2497 43.9196 23.1001C43.9272 23.1746 43.9368 23.2568 43.9483 23.3447C44.0247 23.9772 44.1642 25.1543 43.8183 25.3244C43.7877 25.3397 43.7533 25.3473 43.7151 25.3588C43.6062 25.3894 43.4552 25.4314 43.3654 25.5805L43.3616 25.5767ZM44.9783 25.9225C45.0585 25.2824 45.1158 24.6479 45.1464 24.0384C45.1598 23.7727 45.1674 23.5224 45.1751 23.2931C45.2037 22.4007 45.2248 21.7567 45.5171 21.621C45.6834 21.5427 46.0713 21.5388 46.3197 21.535H46.3427C46.4975 21.535 46.6217 21.5312 46.6561 21.5446C46.9924 21.6688 47.0306 22.6357 47.0765 23.8702C47.0765 23.9122 47.0975 24.4683 47.1185 25.0282L47.151 25.9225H44.9783Z" fill="#55A3B1"/>
</svg>
