<svg width="22" height="22" viewBox="0 0 22 22" fill="none" xmlns="http://www.w3.org/2000/svg">
<path d="M13.75 14.6667H8.25002C8.00691 14.6667 7.77375 14.7632 7.60184 14.9351C7.42993 15.1071 7.33335 15.3402 7.33335 15.5833C7.33335 15.8264 7.42993 16.0596 7.60184 16.2315C7.77375 16.4034 8.00691 16.5 8.25002 16.5H13.75C13.9931 16.5 14.2263 16.4034 14.3982 16.2315C14.5701 16.0596 14.6667 15.8264 14.6667 15.5833C14.6667 15.3402 14.5701 15.1071 14.3982 14.9351C14.2263 14.7632 13.9931 14.6667 13.75 14.6667ZM8.25002 9.16666H9.16669C9.4098 9.16666 9.64296 9.07008 9.81487 8.89818C9.98678 8.72627 10.0834 8.49311 10.0834 8.24999C10.0834 8.00688 9.98678 7.77372 9.81487 7.60181C9.64296 7.42991 9.4098 7.33333 9.16669 7.33333H8.25002C8.00691 7.33333 7.77375 7.42991 7.60184 7.60181C7.42993 7.77372 7.33335 8.00688 7.33335 8.24999C7.33335 8.49311 7.42993 8.72627 7.60184 8.89818C7.77375 9.07008 8.00691 9.16666 8.25002 9.16666ZM13.75 11H8.25002C8.00691 11 7.77375 11.0966 7.60184 11.2685C7.42993 11.4404 7.33335 11.6735 7.33335 11.9167C7.33335 12.1598 7.42993 12.3929 7.60184 12.5648C7.77375 12.7368 8.00691 12.8333 8.25002 12.8333H13.75C13.9931 12.8333 14.2263 12.7368 14.3982 12.5648C14.5701 12.3929 14.6667 12.1598 14.6667 11.9167C14.6667 11.6735 14.5701 11.4404 14.3982 11.2685C14.2263 11.0966 13.9931 11 13.75 11ZM18.0675 14.0158C17.9803 13.9324 17.8775 13.867 17.765 13.8233C17.6556 13.7737 17.5368 13.748 17.4167 13.748C17.2965 13.748 17.1778 13.7737 17.0684 13.8233C16.9558 13.867 16.853 13.9324 16.7659 14.0158C16.6849 14.1049 16.6198 14.2072 16.5734 14.3183C16.5032 14.4853 16.484 14.6692 16.5182 14.8471C16.5525 15.0249 16.6387 15.1886 16.7659 15.3175C16.8515 15.4025 16.9531 15.4697 17.0648 15.5153C17.1765 15.5609 17.296 15.584 17.4167 15.5833C17.5365 15.5819 17.6548 15.557 17.765 15.51C17.8761 15.4636 17.9784 15.3985 18.0675 15.3175C18.1947 15.1886 18.2809 15.0249 18.3151 14.8471C18.3494 14.6692 18.3302 14.4853 18.26 14.3183C18.2136 14.2072 18.1485 14.1049 18.0675 14.0158ZM18.3334 8.19499C18.3238 8.11078 18.3054 8.02782 18.2784 7.94749V7.86499C18.2343 7.77074 18.1755 7.6841 18.1042 7.60833L12.6042 2.10833C12.5284 2.03703 12.4418 1.97824 12.3475 1.93416C12.3202 1.93027 12.2924 1.93027 12.265 1.93416C12.1719 1.88076 12.0691 1.84648 11.9625 1.83333H6.41669C5.68734 1.83333 4.98787 2.12306 4.47214 2.63878C3.95642 3.15451 3.66669 3.85398 3.66669 4.58333V17.4167C3.66669 18.146 3.95642 18.8455 4.47214 19.3612C4.98787 19.8769 5.68734 20.1667 6.41669 20.1667H13.75C13.9931 20.1667 14.2263 20.0701 14.3982 19.8982C14.5701 19.7263 14.6667 19.4931 14.6667 19.25C14.6667 19.0069 14.5701 18.7737 14.3982 18.6018C14.2263 18.4299 13.9931 18.3333 13.75 18.3333H6.41669C6.17357 18.3333 5.94041 18.2368 5.76851 18.0648C5.5966 17.8929 5.50002 17.6598 5.50002 17.4167V4.58333C5.50002 4.34021 5.5966 4.10706 5.76851 3.93515C5.94041 3.76324 6.17357 3.66666 6.41669 3.66666H11V6.41666C11 7.14601 11.2898 7.84548 11.8055 8.36121C12.3212 8.87693 13.0207 9.16666 13.75 9.16666H16.5V11C16.5 11.2431 16.5966 11.4763 16.7685 11.6482C16.9404 11.8201 17.1736 11.9167 17.4167 11.9167C17.6598 11.9167 17.893 11.8201 18.0649 11.6482C18.2368 11.4763 18.3334 11.2431 18.3334 11V8.24999C18.3334 8.24999 18.3334 8.24999 18.3334 8.19499ZM13.75 7.33333C13.5069 7.33333 13.2737 7.23675 13.1018 7.06484C12.9299 6.89293 12.8334 6.65978 12.8334 6.41666V4.95916L15.2075 7.33333H13.75ZM17.4167 16.5C17.1736 16.5 16.9404 16.5966 16.7685 16.7685C16.5966 16.9404 16.5 17.1735 16.5 17.4167V19.25C16.5 19.4931 16.5966 19.7263 16.7685 19.8982C16.9404 20.0701 17.1736 20.1667 17.4167 20.1667C17.6598 20.1667 17.893 20.0701 18.0649 19.8982C18.2368 19.7263 18.3334 19.4931 18.3334 19.25V17.4167C18.3334 17.1735 18.2368 16.9404 18.0649 16.7685C17.893 16.5966 17.6598 16.5 17.4167 16.5Z" fill="#67ADB9"/>
</svg>
