<svg width="22" height="22" viewBox="0 0 22 22" fill="none" xmlns="http://www.w3.org/2000/svg">
<path d="M9.16665 15.5833H10.0833V16.5C10.0833 16.7431 10.1799 16.9763 10.3518 17.1482C10.5237 17.3201 10.7569 17.4167 11 17.4167C11.2431 17.4167 11.4763 17.3201 11.6482 17.1482C11.8201 16.9763 11.9166 16.7431 11.9166 16.5V15.5833H12.8333C13.0764 15.5833 13.3096 15.4868 13.4815 15.3148C13.6534 15.1429 13.75 14.9098 13.75 14.6667C13.75 14.4235 13.6534 14.1904 13.4815 14.0185C13.3096 13.8466 13.0764 13.75 12.8333 13.75H11.9166V12.8333C11.9166 12.5902 11.8201 12.3571 11.6482 12.1851C11.4763 12.0132 11.2431 11.9167 11 11.9167C10.7569 11.9167 10.5237 12.0132 10.3518 12.1851C10.1799 12.3571 10.0833 12.5902 10.0833 12.8333V13.75H9.16665C8.92353 13.75 8.69037 13.8466 8.51847 14.0185C8.34656 14.1904 8.24998 14.4235 8.24998 14.6667C8.24998 14.9098 8.34656 15.1429 8.51847 15.3148C8.69037 15.4868 8.92353 15.5833 9.16665 15.5833ZM17.4166 5.49999H15.5833V4.58333C15.5833 3.85398 15.2936 3.15451 14.7779 2.63878C14.2621 2.12306 13.5627 1.83333 12.8333 1.83333H9.16665C8.4373 1.83333 7.73783 2.12306 7.2221 2.63878C6.70638 3.15451 6.41665 3.85398 6.41665 4.58333V5.49999H4.58331C3.85397 5.49999 3.15449 5.78973 2.63877 6.30545C2.12304 6.82118 1.83331 7.52065 1.83331 8.24999V17.4167C1.83331 18.146 2.12304 18.8455 2.63877 19.3612C3.15449 19.8769 3.85397 20.1667 4.58331 20.1667H17.4166C18.146 20.1667 18.8455 19.8769 19.3612 19.3612C19.8769 18.8455 20.1666 18.146 20.1666 17.4167V8.24999C20.1666 7.52065 19.8769 6.82118 19.3612 6.30545C18.8455 5.78973 18.146 5.49999 17.4166 5.49999ZM8.24998 4.58333C8.24998 4.34021 8.34656 4.10706 8.51847 3.93515C8.69037 3.76324 8.92353 3.66666 9.16665 3.66666H12.8333C13.0764 3.66666 13.3096 3.76324 13.4815 3.93515C13.6534 4.10706 13.75 4.34021 13.75 4.58333V5.49999H8.24998V4.58333ZM18.3333 17.4167C18.3333 17.6598 18.2367 17.8929 18.0648 18.0648C17.8929 18.2368 17.6598 18.3333 17.4166 18.3333H4.58331C4.3402 18.3333 4.10704 18.2368 3.93513 18.0648C3.76322 17.8929 3.66665 17.6598 3.66665 17.4167V11H18.3333V17.4167ZM18.3333 9.16666H3.66665V8.24999C3.66665 8.00688 3.76322 7.77372 3.93513 7.60181C4.10704 7.42991 4.3402 7.33333 4.58331 7.33333H17.4166C17.6598 7.33333 17.8929 7.42991 18.0648 7.60181C18.2367 7.77372 18.3333 8.00688 18.3333 8.24999V9.16666Z" fill="#67ADB9"/>
</svg>
