<svg width="22" height="22" viewBox="0 0 22 22" fill="none" xmlns="http://www.w3.org/2000/svg">
<path d="M13.5758 11.2567C14.156 10.6336 14.4829 9.81639 14.4925 8.96501C14.4925 8.04603 14.1274 7.1647 13.4776 6.51488C12.8278 5.86507 11.9465 5.50001 11.0275 5.50001C10.1085 5.50001 9.22717 5.86507 8.57735 6.51488C7.92754 7.1647 7.56248 8.04603 7.56248 8.96501C7.57204 9.81639 7.89892 10.6336 8.47915 11.2567C7.67125 11.659 6.97601 12.2558 6.45599 12.9934C5.93596 13.7311 5.60744 14.5864 5.49998 15.4825C5.47324 15.7256 5.54417 15.9694 5.69716 16.1602C5.85016 16.351 6.0727 16.4733 6.31581 16.5C6.55893 16.5268 6.80271 16.4558 6.99353 16.3028C7.18435 16.1498 7.30657 15.9273 7.33331 15.6842C7.4427 14.7961 7.87309 13.9786 8.54339 13.3858C9.2137 12.793 10.0776 12.4657 10.9725 12.4657C11.8673 12.4657 12.7313 12.793 13.4016 13.3858C14.0719 13.9786 14.5023 14.7961 14.6116 15.6842C14.6371 15.9192 14.7525 16.1353 14.9335 16.2874C15.1146 16.4394 15.3474 16.5156 15.5833 16.5H15.6841C15.9244 16.4724 16.1441 16.3509 16.2952 16.162C16.4463 15.9731 16.5166 15.7322 16.4908 15.4917C16.3913 14.6003 16.0732 13.7473 15.5646 13.0085C15.0561 12.2696 14.3729 11.6679 13.5758 11.2567ZM11 10.5967C10.6773 10.5967 10.3618 10.501 10.0935 10.3217C9.82515 10.1424 9.61601 9.88757 9.49252 9.58942C9.36902 9.29127 9.33671 8.9632 9.39966 8.64669C9.46262 8.33018 9.61802 8.03944 9.84622 7.81125C10.0744 7.58305 10.3651 7.42765 10.6817 7.3647C10.9982 7.30174 11.3262 7.33405 11.6244 7.45755C11.9225 7.58104 12.1774 7.79018 12.3567 8.0585C12.5359 8.32683 12.6316 8.6423 12.6316 8.96501C12.6316 9.39775 12.4597 9.81278 12.1537 10.1188C11.8477 10.4248 11.4327 10.5967 11 10.5967ZM17.4166 1.83334H4.58331C3.85397 1.83334 3.15449 2.12307 2.63877 2.6388C2.12304 3.15452 1.83331 3.854 1.83331 4.58334V17.4167C1.83331 18.146 2.12304 18.8455 2.63877 19.3612C3.15449 19.8769 3.85397 20.1667 4.58331 20.1667H17.4166C18.146 20.1667 18.8455 19.8769 19.3612 19.3612C19.8769 18.8455 20.1666 18.146 20.1666 17.4167V4.58334C20.1666 3.854 19.8769 3.15452 19.3612 2.6388C18.8455 2.12307 18.146 1.83334 17.4166 1.83334ZM18.3333 17.4167C18.3333 17.6598 18.2367 17.893 18.0648 18.0649C17.8929 18.2368 17.6598 18.3333 17.4166 18.3333H4.58331C4.3402 18.3333 4.10704 18.2368 3.93513 18.0649C3.76322 17.893 3.66665 17.6598 3.66665 17.4167V4.58334C3.66665 4.34023 3.76322 4.10707 3.93513 3.93516C4.10704 3.76325 4.3402 3.66668 4.58331 3.66668H17.4166C17.6598 3.66668 17.8929 3.76325 18.0648 3.93516C18.2367 4.10707 18.3333 4.34023 18.3333 4.58334V17.4167Z" fill="#67ADB9"/>
</svg>
